<?xml version="1.0" encoding="UTF-8"?>
<svg xmlns="http://www.w3.org/2000/svg" xmlns:xlink="http://www.w3.org/1999/xlink" version="1.1" viewBox="0 0 150 150">
  <defs>
    <style>
      .cls-1 {
        fill: #1877f2;
      }

      .cls-2 {
        fill: #fff;
      }

      .cls-3 {
        fill: #f1f1f1;
      }

      .cls-4, .cls-5 {
        display: none;
      }

      .cls-5 {
        fill: url(#linear-gradient);
      }

      .cls-6 {
        fill: #039be5;
      }
    </style>
    <linearGradient id="linear-gradient" x1="24.9" y1="26.65" x2="124.59" y2="126.35" gradientTransform="translate(0 152) scale(1 -1)" gradientUnits="userSpaceOnUse">
      <stop offset="0" stop-color="#ffd521"></stop>
      <stop offset=".06" stop-color="#ffd020"></stop>
      <stop offset=".12" stop-color="#fec01e"></stop>
      <stop offset=".2" stop-color="#fca71b"></stop>
      <stop offset=".28" stop-color="#fa8316"></stop>
      <stop offset=".37" stop-color="#f85510"></stop>
      <stop offset=".46" stop-color="#f51e09"></stop>
      <stop offset=".5" stop-color="#f30005"></stop>
      <stop offset=".5" stop-color="#f20007"></stop>
      <stop offset=".6" stop-color="#e1003b"></stop>
      <stop offset=".69" stop-color="#d30067"></stop>
      <stop offset=".78" stop-color="#c70088"></stop>
      <stop offset=".86" stop-color="#bf00a0"></stop>
      <stop offset=".94" stop-color="#bb00af"></stop>
      <stop offset="1" stop-color="#b900b4"></stop>
    </linearGradient>
  </defs>
  <g>
    <g id="Layer_1">
      <g class="cls-4">
        <path class="cls-1" d="M74.61,5.26C-12.18,7.8-21.03,129.58,63.61,145.26h21.99C170.27,129.57,161.38,7.79,74.61,5.26Z"></path>
        <path class="cls-3" d="M85.6,96.04h16.39l3.12-20.36h-19.51v-13.21c0-5.57,2.73-11,11.47-11h8.87v-17.33c-19-3.42-41.83-2.38-42.33,26.03v15.52h-17.87v20.36h17.87v49.22h21.99v-49.22Z"></path>
      </g>
      <path class="cls-5" d="M74.75,146c-38.93,0-70.5-31.57-70.5-70.5S35.82,5,74.75,5s70.5,31.57,70.5,70.5-31.57,70.5-70.5,70.5Z"></path>
      <g>
        <path class="cls-2" d="M74.75,36.05c12.85,0,14.37.04,19.44.28,4.7.21,7.25,1,8.94,1.66,2.24.87,3.85,1.92,5.53,3.6s2.72,3.29,3.6,5.53c.66,1.69,1.44,4.24,1.66,8.94.23,5.08.28,6.6.28,19.44s-.04,14.37-.28,19.44c-.21,4.7-1,7.25-1.66,8.94-.87,2.24-1.92,3.85-3.6,5.53s-3.29,2.72-5.53,3.6c-1.69.66-4.24,1.44-8.94,1.66-5.08.23-6.6.28-19.44.28s-14.37-.04-19.44-.28c-4.7-.21-7.25-1-8.94-1.66-2.24-.87-3.85-1.92-5.53-3.6s-2.72-3.29-3.6-5.53c-.66-1.69-1.44-4.24-1.66-8.94-.23-5.08-.28-6.6-.28-19.44s.04-14.37.28-19.44c.21-4.7,1-7.25,1.66-8.94.87-2.24,1.92-3.85,3.6-5.53s3.29-2.72,5.53-3.6c1.69-.66,4.24-1.44,8.94-1.66,5.08-.24,6.6-.28,19.44-.28M74.75,27.38c-13.07,0-14.71.06-19.84.3-5.12.24-8.62,1.04-11.69,2.24-3.16,1.21-5.85,2.86-8.52,5.54-2.68,2.68-4.31,5.36-5.56,8.53-1.18,3.06-2,6.56-2.24,11.69s-.3,6.77-.3,19.84.06,14.71.3,19.84c.24,5.12,1.04,8.62,2.24,11.69,1.23,3.14,2.88,5.84,5.56,8.5,2.68,2.68,5.36,4.31,8.53,5.56,3.06,1.18,6.56,2,11.69,2.24s6.77.3,19.84.3,14.71-.06,19.84-.3c5.12-.24,8.62-1.04,11.69-2.24,3.14-1.23,5.84-2.88,8.5-5.56,2.68-2.68,4.31-5.36,5.56-8.53,1.18-3.06,2-6.56,2.24-11.69.24-5.13.3-6.77.3-19.84s-.06-14.71-.3-19.84c-.24-5.12-1.04-8.62-2.24-11.69-1.23-3.14-2.88-5.84-5.56-8.5-2.68-2.68-5.36-4.31-8.53-5.56-3.06-1.18-6.56-2-11.69-2.24-5.12-.23-6.75-.28-19.82-.28h0Z"></path>
        <path class="cls-2" d="M74.75,50.78c-13.65,0-24.72,11.07-24.72,24.72s11.07,24.72,24.72,24.72,24.72-11.07,24.72-24.72-11.07-24.72-24.72-24.72ZM74.75,91.55c-8.85,0-16.05-7.18-16.05-16.05s7.19-16.05,16.05-16.05,16.05,7.18,16.05,16.05-7.19,16.05-16.05,16.05Z"></path>
        <circle class="cls-2" cx="100.44" cy="49.81" r="5.78"></circle>
      </g>
      <circle class="cls-6" cx="75.04" cy="75.31" r="70.69"></circle>
      <path class="cls-2" d="M36.7,73.78l68.15-26.28c3.16-1.14,5.93.77,4.9,5.55h0s-11.6,54.66-11.6,54.66c-.86,3.88-3.16,4.82-6.39,2.99l-17.67-13.02-8.52,8.21c-.94.94-1.74,1.74-3.56,1.74l1.25-17.98,32.75-29.59c1.43-1.25-.32-1.96-2.2-.71l-40.47,25.48-17.45-5.44c-3.79-1.2-3.87-3.79.8-5.61h0Z"></path>
    </g>
  </g>
</svg>
